<?xml version="1.0" standalone="no"?>
<!DOCTYPE svg PUBLIC "-//W3C//DTD SVG 20010904//EN"
 "http://www.w3.org/TR/2001/REC-SVG-20010904/DTD/svg10.dtd">
<svg version="1.0" xmlns="http://www.w3.org/2000/svg"
 width="1000.000000pt" height="1000.000000pt" viewBox="0 0 1000.000000 1000.000000"
 preserveAspectRatio="xMidYMid meet">
<metadata>
Created by potrace 1.11, written by Peter Selinger 2001-2013
</metadata>
<g transform="translate(0.000000,1000.000000) scale(0.100000,-0.100000)"
fill="#000000" stroke="none">
<path d="M330 5003 l0 -4678 4672 1 c2570 1 4675 2 4678 3 3 0 5 2104 5 4673
l0 4673 -4678 3 -4677 2 0 -4677z m1475 2972 l0 -1195 -482 0 -483 0 0 1195 0
1195 483 0 483 0 -1 -1195z m1423 -701 l-3 -1897 -1170 1 c-643 0 -1180 1
-1192 1 l-23 1 0 440 c0 345 3 440 13 441 6 0 339 1 739 1 l728 1 0 1101 c0
606 0 1260 0 1454 l0 352 455 0 455 0 -2 -1896z m1522 -791 l0 -2688 -1955 0
-1955 0 0 533 0 532 1454 0 1455 0 0 2143 c0 1178 0 2148 1 2155 0 9 107 12
500 12 l500 0 0 -2687z m1410 -673 c0 -3193 -1 -3360 -17 -3361 -23 -1 -5286
-1 -5295 0 -5 1 -8 189 -8 419 l0 417 2210 -1 2210 -1 0 2944 0 2943 450 0
450 0 0 -3360z m1501 3338 c1 -33 1 -8270 0 -8290 -1 -17 -170 -18 -3411 -18
l-3410 0 0 545 0 545 2918 0 2919 0 1 3608 c0 1984 1 3613 1 3620 1 9 106 12
491 12 l490 0 1 -22z m1509 -4143 l0 -4165 -495 0 -495 0 0 4165 0 4165 495 0
495 0 0 -4165z"/>
</g>
</svg>
